<svg width="26" height="26" viewBox="0 0 26 26" fill="none" xmlns="http://www.w3.org/2000/svg">
<path d="M19.0928 1.07904C20.5308 -0.359681 22.8643 -0.359681 24.3023 1.07904L24.9215 1.69922C26.3595 3.13809 26.3595 5.4709 24.9215 6.90876L14.8301 17.0044C14.3849 17.4445 13.8373 17.7669 13.2335 17.9408L8.11612 19.4043C7.68627 19.5271 7.2257 19.4043 6.90843 19.0461C6.59627 18.7749 6.47345 18.3144 6.59627 17.8846L8.05983 12.7676C8.23382 12.1638 8.55622 11.6163 8.99631 11.1712L19.0928 1.07904ZM22.5215 2.81573C22.0865 2.33627 21.3087 2.33627 20.8276 2.81573L19.3385 4.30424L21.6976 6.66314L23.1867 5.12807C23.6678 4.69313 23.6678 3.91536 23.1867 3.4359L22.5215 2.81573ZM10.4241 13.4431L9.56433 16.4365L12.558 15.5768C12.7627 15.5205 12.9418 15.4131 13.0902 15.2647L19.9628 8.39778L17.6037 6.03888L10.7362 12.9109C10.5878 13.0593 10.4803 13.2384 10.4241 13.4431ZM10.2347 3.07618C10.9153 3.07618 11.4629 3.62625 11.4629 4.30424C11.4629 4.98479 10.9153 5.5323 10.2347 5.5323H4.50327C3.37285 5.5323 2.45633 6.44823 2.45633 7.57907V21.4971C2.45633 22.6279 3.37285 23.5439 4.50327 23.5439H18.4225C19.5534 23.5439 20.4694 22.6279 20.4694 21.4971V15.7662C20.4694 15.0856 21.017 14.5381 21.6976 14.5381C22.3782 14.5381 22.9257 15.0856 22.9257 15.7662V21.4971C22.9257 23.9839 20.9095 26 18.4225 26H4.50327C2.01624 26 0 23.9839 0 21.4971V7.57907C0 5.09225 2.01624 3.07618 4.50327 3.07618H10.2347Z" fill="#B14D78"/>
</svg>
